<?xml version="1.0" encoding="utf-8"?>
<!-- Generator: Adobe Illustrator 23.0.1, SVG Export Plug-In . SVG Version: 6.00 Build 0)  -->
<svg version="1.1" id="Layer_1" xmlns="http://www.w3.org/2000/svg" xmlns:xlink="http://www.w3.org/1999/xlink" x="0px" y="0px"
	 viewBox="0 0 154.2 65" style="enable-background:new 0 0 154.2 65;" xml:space="preserve">
<style type="text/css">
	.st0{fill:url(#SVGID_1_);}
	.st1{fill:url(#SVGID_2_);}
	.st2{fill:url(#SVGID_3_);}
	.st3{fill:url(#SVGID_4_);}
	.st4{fill:url(#SVGID_5_);}
	.st5{fill:url(#SVGID_6_);}
	.st6{fill:url(#Path_219_1_);}
	.st7{opacity:3.000000e-02;enable-background:new    ;}
	.st8{fill:none;}
	.st9{fill:#0EC77C;}
	.st10{opacity:0.1;fill:#FFFFFF;enable-background:new    ;}
	.st11{fill:#FFFFFF;}
	.st12{opacity:0.1;}
</style>
<g>
	
		<linearGradient id="SVGID_1_" gradientUnits="userSpaceOnUse" x1="64.0765" y1="1124.9316" x2="66.682" y2="1094.1863" gradientTransform="matrix(1 0 0 1 0 -1082.9666)">
		<stop  offset="0" style="stop-color:#10AF7E"/>
		<stop  offset="1" style="stop-color:#00DB7E"/>
	</linearGradient>
	<path class="st0" d="M71.9,33.7c0.6,0.8,0.9,1.8,0.9,2.9c0,1.6-0.6,2.8-1.8,3.7c-1.2,0.9-2.7,1.4-4.8,1.4h-6.9
		c-0.6,0-1.1-0.2-1.5-0.5c-0.3-0.3-0.5-0.8-0.5-1.5V24.9c0-0.6,0.2-1.1,0.5-1.5c0.3-0.3,0.8-0.5,1.5-0.5h6.6c2,0,3.5,0.4,4.6,1.3
		c1.2,0.9,1.7,2.1,1.7,3.5c0,1-0.3,1.9-0.8,2.5c-0.5,0.7-1.3,1.3-2.1,1.6C70.4,32.4,71.3,32.9,71.9,33.7z M61.3,30.6h3.9
		c1.1,0,1.9-0.2,2.3-0.6c0.5-0.4,0.8-0.9,0.8-1.7c0-0.8-0.3-1.4-0.8-1.7c-0.5-0.4-1.3-0.6-2.3-0.6h-3.9V30.6z M68.1,38
		c0.5-0.4,0.8-1,0.8-1.8c0-0.8-0.3-1.5-0.8-1.9s-1.3-0.6-2.3-0.6h-4.4v4.8h4.4C66.8,38.6,67.6,38.4,68.1,38z"/>
	
		<linearGradient id="SVGID_2_" gradientUnits="userSpaceOnUse" x1="80.7849" y1="1126.3477" x2="83.3904" y2="1095.6023" gradientTransform="matrix(1 0 0 1 0 -1082.9666)">
		<stop  offset="0" style="stop-color:#10AF7E"/>
		<stop  offset="1" style="stop-color:#00DB7E"/>
	</linearGradient>
	<path class="st1" d="M87.2,28.9c0.4,0.3,0.6,0.8,0.6,1.4V40c0,0.6-0.2,1-0.6,1.4c-0.4,0.3-0.9,0.5-1.5,0.5c-0.6,0-1-0.2-1.4-0.5
		c-0.3-0.3-0.5-0.8-0.5-1.3v-0.2c-0.4,0.7-1,1.2-1.6,1.6c-0.7,0.4-1.4,0.5-2.2,0.5c-1.7,0-2.8-0.5-3.7-1.4c-0.8-0.9-1.2-2.2-1.2-4.1
		v-6.2c0-0.6,0.2-1.1,0.6-1.4c0.4-0.3,0.9-0.5,1.5-0.5c0.6,0,1.1,0.2,1.5,0.5c0.4,0.3,0.5,0.8,0.5,1.4v6.2c0,0.8,0.2,1.4,0.5,1.8
		c0.3,0.4,0.8,0.6,1.5,0.6c0.8,0,1.4-0.3,1.9-0.8s0.7-1.3,0.7-2.1v-5.6c0-0.6,0.2-1.1,0.5-1.4c0.4-0.3,0.9-0.5,1.5-0.5
		C86.4,28.4,86.9,28.6,87.2,28.9z"/>
	
		<linearGradient id="SVGID_3_" gradientUnits="userSpaceOnUse" x1="95.1009" y1="1127.5608" x2="97.7064" y2="1096.8154" gradientTransform="matrix(1 0 0 1 0 -1082.9666)">
		<stop  offset="0" style="stop-color:#10AF7E"/>
		<stop  offset="1" style="stop-color:#00DB7E"/>
	</linearGradient>
	<path class="st2" d="M93,41.6c-0.8-0.2-1.5-0.5-2.1-0.9c-0.3-0.2-0.5-0.4-0.6-0.7c-0.1-0.3-0.2-0.6-0.2-0.9c0-0.4,0.1-0.8,0.4-1
		c0.2-0.3,0.5-0.4,0.9-0.4c0.2,0,0.5,0,0.7,0.1s0.5,0.2,0.7,0.3c0.5,0.2,1,0.4,1.5,0.6c0.5,0.1,1.1,0.2,1.8,0.2
		c0.6,0,1.1-0.1,1.5-0.3c0.4-0.2,0.5-0.5,0.5-0.8s-0.1-0.5-0.2-0.6c-0.2-0.2-0.4-0.3-0.9-0.4c-0.5-0.1-1.1-0.3-2-0.5
		c-1.6-0.3-2.7-0.8-3.4-1.4c-0.7-0.6-1.1-1.5-1.1-2.5c0-0.8,0.2-1.5,0.7-2.1c0.5-0.7,1.2-1.2,2-1.5c0.9-0.4,1.8-0.6,2.8-0.6
		c0.8,0,1.5,0.1,2.2,0.3c0.7,0.2,1.4,0.5,2,0.8c0.6,0.3,0.8,0.8,0.8,1.5c0,0.4-0.1,0.8-0.4,1.1c-0.2,0.3-0.5,0.4-0.9,0.4
		s-0.9-0.2-1.5-0.5c-0.5-0.2-0.9-0.4-1.2-0.5c-0.4-0.1-0.8-0.2-1.3-0.2c-0.6,0-1,0.1-1.3,0.3c-0.3,0.2-0.5,0.5-0.5,0.9
		c0,0.4,0.2,0.7,0.6,0.9c0.4,0.2,1.1,0.4,2.1,0.6c1.2,0.2,2.1,0.5,2.7,0.9c0.7,0.3,1.2,0.8,1.5,1.3c0.3,0.5,0.5,1.1,0.5,1.9
		c0,1.3-0.5,2.2-1.6,3s-2.4,1.1-4.1,1.1C94.7,41.9,93.7,41.8,93,41.6z"/>
	
		<linearGradient id="SVGID_4_" gradientUnits="userSpaceOnUse" x1="112.3348" y1="1129.0212" x2="114.9403" y2="1098.276" gradientTransform="matrix(1 0 0 1 0 -1082.9666)">
		<stop  offset="0" style="stop-color:#10AF7E"/>
		<stop  offset="1" style="stop-color:#00DB7E"/>
	</linearGradient>
	<path class="st3" d="M122.1,23.5c0.4,0.4,0.6,0.9,0.6,1.5v15c0,0.6-0.2,1.1-0.5,1.4c-0.3,0.3-0.8,0.5-1.4,0.5c-0.5,0-1-0.2-1.3-0.5
		c-0.3-0.3-0.5-0.8-0.5-1.4v-9.4l-3.7,7c-0.3,0.5-0.5,0.8-0.8,1c-0.3,0.2-0.7,0.3-1.1,0.3c-0.4,0-0.7-0.1-1.1-0.3
		c-0.3-0.2-0.6-0.6-0.8-1l-3.7-6.9v9.2c0,0.6-0.2,1-0.5,1.4c-0.3,0.4-0.8,0.5-1.4,0.5c-0.5,0-1-0.2-1.3-0.5
		c-0.3-0.3-0.5-0.8-0.5-1.4v-15c0-0.6,0.2-1.1,0.6-1.5c0.4-0.4,0.9-0.6,1.5-0.6c0.9,0,1.5,0.5,2,1.4l5.4,10.2l5.4-10.2
		c0.5-0.9,1.1-1.4,2-1.4C121.2,22.9,121.7,23.1,122.1,23.5z"/>
	
		<linearGradient id="SVGID_5_" gradientUnits="userSpaceOnUse" x1="130.6935" y1="1130.5771" x2="133.2991" y2="1099.8318" gradientTransform="matrix(1 0 0 1 0 -1082.9666)">
		<stop  offset="0" style="stop-color:#10AF7E"/>
		<stop  offset="1" style="stop-color:#00DB7E"/>
	</linearGradient>
	<path class="st4" d="M136.2,29.8c0.9,0.9,1.4,2.3,1.4,4.3v6c0,0.6-0.2,1.1-0.5,1.4c-0.3,0.3-0.8,0.5-1.4,0.5c-0.6,0-1-0.2-1.4-0.5
		c-0.4-0.3-0.5-0.8-0.5-1.4v-0.2c-0.3,0.7-0.7,1.2-1.4,1.6c-0.6,0.4-1.4,0.6-2.1,0.6c-0.9,0-1.7-0.2-2.4-0.5
		c-0.7-0.4-1.3-0.9-1.7-1.5c-0.4-0.7-0.6-1.4-0.6-2.1c0-1,0.2-1.7,0.7-2.2s1.3-1,2.3-1.2c1.1-0.2,2.5-0.4,4.4-0.4h0.7v-0.5
		c0-0.8-0.2-1.3-0.5-1.7c-0.3-0.3-0.9-0.5-1.7-0.5c-0.8,0-1.9,0.3-3.3,0.8c-0.4,0.2-0.8,0.3-1.1,0.3c-0.4,0-0.7-0.1-0.9-0.4
		c-0.2-0.3-0.4-0.6-0.4-1.1c0-0.4,0.1-0.7,0.2-0.9c0.2-0.2,0.4-0.5,0.8-0.7c0.6-0.3,1.4-0.6,2.2-0.8c0.9-0.2,1.8-0.3,2.6-0.3
		C133.8,28.3,135.2,28.8,136.2,29.8z M133,38.4c0.5-0.5,0.7-1.2,0.7-2.1v-0.5h-0.5c-1.5,0-2.4,0.1-3,0.4c-0.6,0.2-0.9,0.7-0.9,1.3
		c0,0.5,0.2,0.9,0.5,1.2c0.3,0.3,0.8,0.5,1.3,0.5C131.9,39.2,132.5,38.9,133,38.4z"/>
	
		<linearGradient id="SVGID_6_" gradientUnits="userSpaceOnUse" x1="145.997" y1="1131.8741" x2="148.6024" y2="1101.1287" gradientTransform="matrix(1 0 0 1 0 -1082.9666)">
		<stop  offset="0" style="stop-color:#10AF7E"/>
		<stop  offset="1" style="stop-color:#00DB7E"/>
	</linearGradient>
	<path class="st5" d="M151.5,29.2c0.9,0.6,1.6,1.4,2.1,2.4c0.5,1.1,0.7,2.2,0.7,3.5c0,1.4-0.2,2.5-0.7,3.5c-0.5,1-1.2,1.8-2.1,2.3
		c-0.9,0.6-1.9,0.8-3,0.8c-0.9,0-1.7-0.2-2.4-0.6c-0.7-0.4-1.3-0.9-1.7-1.6v5c0,0.5-0.2,1-0.5,1.3c-0.4,0.3-0.8,0.5-1.4,0.5
		c-0.6,0-1.1-0.2-1.5-0.5c-0.4-0.3-0.6-0.8-0.6-1.4V30.3c0-0.6,0.2-1,0.6-1.4c0.4-0.4,0.9-0.5,1.5-0.5s1.1,0.2,1.5,0.5
		s0.5,0.8,0.5,1.4v0.2c0.4-0.7,1-1.2,1.7-1.6c0.7-0.4,1.6-0.6,2.4-0.6C149.6,28.3,150.7,28.6,151.5,29.2z M149.5,37.9
		c0.5-0.6,0.8-1.6,0.8-2.7c0-1.2-0.3-2.1-0.8-2.8c-0.5-0.7-1.3-1-2.1-1c-1,0-1.7,0.3-2.1,1s-0.8,1.6-0.8,2.7c0,1.2,0.3,2.1,0.8,2.7
		c0.5,0.7,1.3,1,2.1,1C148.4,38.9,149.1,38.6,149.5,37.9z"/>
</g>
<g id="Group_578" transform="translate(241.111 87.111)">
	
		<linearGradient id="Path_219_1_" gradientUnits="userSpaceOnUse" x1="-5759.8057" y1="500.5182" x2="-5759.8184" y2="501.5432" gradientTransform="matrix(47.78 0 0 -47.778 274986.625 23883.5391)">
		<stop  offset="0" style="stop-color:#10AF7E"/>
		<stop  offset="1" style="stop-color:#00DB7E"/>
	</linearGradient>
	<path id="Path_219" class="st6" d="M-207.3-30.6h-19.8c-7.7,0-14-6.3-14-14v-19.8c0-7.7,6.3-14,14-14h19.8c7.7,0,14,6.3,14,14l0,0
		v19.8C-193.3-36.9-199.5-30.6-207.3-30.6z"/>
	<path id="Path_220" class="st7" d="M-234.5-49.9l19.2,19.2h8c7.7,0,14-6.3,14-14v-1.3l-5.7-5.7l-20.4-6L-234.5-49.9z"/>
	<path id="Path_221" class="st8" d="M-208.9-60.3"/>
	<path id="Path_222" class="st8" d="M-208.9-65.3"/>
	<path id="Path_223" class="st9" d="M-208.9-60.3c0,0.2,0.1,0.3,0.3,0.3h0.1C-208.8-59.9-208.9-60.1-208.9-60.3z"/>
	<path id="Path_224" class="st9" d="M-208.6-65.6L-208.6-65.6c-0.2,0-0.3,0.1-0.3,0.3C-208.9-65.4-208.8-65.6-208.6-65.6
		C-208.6-65.6-208.6-65.6-208.6-65.6z"/>
	<g id="Group_574" transform="translate(12.233 25.42)">
		<g id="Group_572" transform="translate(0 0)">
			<circle id="Ellipse_27" class="st10" cx="-237.3" cy="-74.7" r="3.2"/>
			<path id="Path_225" class="st10" d="M-221.2-77.9c-1.7-0.1-3.3,1.2-3.4,2.9s1.2,3.3,2.9,3.4c1.7,0.1,3.3-1.2,3.4-2.9
				c0-0.2,0-0.3,0-0.5C-218.4-76.5-219.7-77.7-221.2-77.9z"/>
		</g>
		<g id="Group_573" transform="translate(2.464 2.463)">
			<circle id="Ellipse_28" class="st11" cx="-239.8" cy="-77.2" r="1.2"/>
			<circle id="Ellipse_29" class="st11" cx="-223.9" cy="-77.2" r="1.2"/>
		</g>
	</g>
	<g id="Group_575" transform="translate(6.859 12.812)" class="st12">
		<path id="Path_226" class="st11" d="M-234.7-78.4h-5.9c-0.2,0-0.4,0.1-0.4,0.3v7.4c0,0.1,0.1,0.2,0.2,0.2h1.9
			c2.5,0,4.5-1.5,4.5-3.3v-4.5C-234.5-78.4-234.6-78.4-234.7-78.4z"/>
		<path id="Path_227" class="st11" d="M-226-78.4h-6.9c-0.2,0-0.3,0.2-0.3,0.3c0,0,0,0,0,0v5c0,0.2,0.2,0.3,0.3,0.3c0,0,0,0,0,0h6.9
			c0.2,0,0.3-0.2,0.3-0.3c0,0,0,0,0,0v-5C-225.7-78.3-225.9-78.4-226-78.4z"/>
		<path id="Path_228" class="st11" d="M-217.3-78.4h-6.9c-0.2,0-0.3,0.2-0.3,0.3c0,0,0,0,0,0v5c0,0.2,0.2,0.3,0.3,0.3c0,0,0,0,0,0
			h6.9c0.2,0,0.3-0.2,0.3-0.3c0,0,0,0,0,0v-5C-216.9-78.3-217.1-78.4-217.3-78.4C-217.3-78.4-217.3-78.4-217.3-78.4z"/>
		<path id="Path_229" class="st11" d="M-210.3-78.4h-5.1c-0.2,0-0.3,0.2-0.3,0.3c0,0,0,0,0,0l0,0v5l0,0c0,0.2,0.2,0.3,0.3,0.3
			c0,0,0,0,0,0h5.1c0.1,0,0.3-0.1,0.3-0.3v-5C-210.1-78.2-210.2-78.4-210.3-78.4C-210.3-78.4-210.3-78.4-210.3-78.4z"/>
	</g>
	<path class="st11" d="M-208.7-41.6c-0.1-0.1-0.3-0.2-0.5,0l-0.2,0.1l-0.7,0.6c-0.1,0.1-0.2,0.1-0.3,0.2l-0.1,0.1
		c-0.3,0.2-0.6,0.4-1,0.6c-0.1,0-0.1,0.1-0.2,0.1c0,0-0.1,0-0.1,0.1l-0.3,0.1l-0.5,0.2c0,0-0.1,0-0.1,0l-0.4,0.2
		c-0.1,0-0.1,0.1-0.2,0.1c0,0-0.1,0-0.1,0l-0.2,0.1c0,0-0.1,0-0.1,0c0,0,0,0-0.1,0l-0.4,0.1c-0.5,0.1-1,0.3-1.5,0.3
		c-0.5,0.1-1.1,0.1-1.6,0.1c-0.5,0-1.1,0-1.6-0.1c-0.5-0.1-1-0.2-1.5-0.3l-0.4-0.1l-0.1,0l-0.2-0.1c0,0-0.1,0-0.1,0
		c-0.1,0-0.1,0-0.2-0.1l-0.3-0.1c0,0,0,0-0.1,0c0,0-0.1,0-0.1,0l-0.5-0.2l-0.3-0.1c0,0-0.1,0-0.1,0c-0.1,0-0.1-0.1-0.2-0.1l-0.3-0.1
		c-0.1,0-0.2-0.1-0.3-0.1l-0.3-0.2c-0.1,0-0.1-0.1-0.2-0.1l-0.1-0.1c-0.1-0.1-0.2-0.1-0.3-0.2l-0.3-0.2c0.2,0,0.3,0,0.5,0
		c0.1,0,0.2,0,0.2-0.1c0-0.1,0-0.2-0.1-0.3c-0.5-0.3-1-0.4-1.6-0.5c-0.2,0-0.3,0-0.3,0.3c0,0.3,0,0.6,0.1,0.9c0,0.2,0.1,0.5,0.2,0.7
		c0,0.1,0.1,0.2,0.2,0.2c0,0,0.1,0,0.1,0c0,0,0,0,0,0l0,0v0c0.1-0.2,0.1-0.4,0.1-0.6l0.3,0.3c0.1,0.1,0.2,0.1,0.3,0.2l0.1,0.1
		c0.1,0,0.1,0.1,0.2,0.1l0.3,0.2c0,0,0,0,0,0c0,0,0.1,0,0.1,0.1l0.4,0.3c0.1,0,0.1,0.1,0.2,0.1c0,0,0.1,0,0.1,0.1l0.3,0.2l0.5,0.3
		l0.1,0.1l0.4,0.2c0.1,0,0.2,0.1,0.2,0.1c0,0,0.1,0,0.1,0l0.2,0.1c0,0,0.1,0,0.1,0c0,0,0,0,0.1,0l0.4,0.1c0.1,0,0.1,0,0.2,0.1
		c0.2,0.1,0.4,0.1,0.6,0.2l0.3,0.1l0.5,0.1c1.2,0.2,2.4,0.1,3.6-0.1l0.5-0.1l0.3-0.1c0.2,0,0.4-0.1,0.6-0.2c0.1,0,0.1,0,0.2-0.1
		l0.5-0.2c0,0,0.1,0,0.1,0l0.2-0.1c0,0,0.1,0,0.1-0.1c0.1,0,0.2-0.1,0.2-0.1l0.4-0.2l0.1-0.1l0.5-0.3l0.3-0.2c0,0,0.1,0,0.1-0.1
		c0.1,0,0.1-0.1,0.2-0.1l0.3-0.2c0.1-0.1,0.2-0.1,0.2-0.2l0.3-0.2c0.1,0,0.1-0.1,0.2-0.1l0.1-0.1l0.3-0.2l0.4-0.4c0,0,0-0.1,0.1-0.1
		l0.3-0.4C-208.6-41.3-208.5-41.5-208.7-41.6z"/>
	<path id="Path_238" class="st11" d="M-199-64.1v-1.5c0-2-1.7-3.5-3.6-3.5h-29.1c-1.8,0-3.4,1.3-3.6,3.1c0,0.5-0.1,1.1,0,1.6l0,0
		v1.2l0,0v11c0,2,1.7,3.5,3.6,3.5h2.3c0.4,2.4,2.6,4,4.9,3.7c1.9-0.3,3.4-1.8,3.7-3.7h7.3c0.4,2.4,2.6,4,4.9,3.7
		c1.9-0.3,3.4-1.8,3.7-3.7l0,0h2.3c2,0,3.6-1.5,3.6-3.5v-7.4l0,0L-199-64.1L-199-64.1z M-232.1-57.7h-1.9c-0.1,0-0.2-0.1-0.2-0.2
		v-7.4c0-0.2,0.2-0.3,0.4-0.3h5.9c0.1,0,0.2,0.1,0.2,0.2v4.5C-227.6-59.2-229.6-57.7-232.1-57.7L-232.1-57.7z M-225.1-46.1
		c-1.8,0-3.2-1.4-3.2-3.2c0-1.8,1.4-3.2,3.2-3.2s3.2,1.4,3.2,3.2c0,0,0,0,0,0C-221.9-47.5-223.4-46.1-225.1-46.1z M-218.8-60.3
		c0,0.2-0.2,0.3-0.3,0.3c0,0,0,0,0,0h-6.9c-0.2,0-0.3-0.2-0.3-0.3c0,0,0,0,0,0v-5c0-0.2,0.2-0.3,0.3-0.3c0,0,0,0,0,0h6.9
		c0.2,0,0.3,0.2,0.3,0.3c0,0,0,0,0,0L-218.8-60.3z M-217.7-60.3v-5c0-0.2,0.2-0.3,0.3-0.3c0,0,0,0,0,0h6.9c0.2,0,0.3,0.2,0.3,0.3
		c0,0,0,0,0,0v5c0,0.2-0.2,0.3-0.3,0.3c0,0,0,0,0,0h-6.9C-217.5-59.9-217.7-60.1-217.7-60.3L-217.7-60.3z M-209.2-46.1
		c-1.8,0-3.2-1.4-3.2-3.2s1.4-3.2,3.2-3.2c1.8,0,3.2,1.4,3.2,3.2v0C-206.1-47.5-207.5-46.1-209.2-46.1
		C-209.2-46.1-209.2-46.1-209.2-46.1z M-203.2-60.3c0,0.2-0.1,0.3-0.3,0.3h-5.2c-0.1,0-0.3-0.1-0.3-0.3l0,0v-5l0,0
		c0-0.2,0.1-0.3,0.3-0.3h5.2c0.1,0,0.3,0.1,0.3,0.3C-203.2-65.3-203.2-60.3-203.2-60.3z"/>
</g>
</svg>
