<?xml version="1.0" encoding="utf-8"?>
<!-- Generator: Adobe Illustrator 23.0.4, SVG Export Plug-In . SVG Version: 6.00 Build 0)  -->
<svg version="1.1" id="Layer_1" xmlns="http://www.w3.org/2000/svg" xmlns:xlink="http://www.w3.org/1999/xlink" x="0px" y="0px"
	 viewBox="0 0 50 50" style="enable-background:new 0 0 50 50;" xml:space="preserve">
<style type="text/css">
	.st0{fill:#FFFFFF;}
	.st1{fill:#09C969;}
	.st2{opacity:0.15;fill:#09C969;enable-background:new    ;}
</style>
<g>
	<path class="st0" d="M24.8,0C14,0,5.3,8.8,5.3,19.6c0,4,1.2,7.9,3.5,11.2c2.2,3.2,5.4,5.7,9,7.1l4.7,8.8h0l1.5,2.8
		c0.2,0.3,0.5,0.5,0.9,0.5h0c0.4,0,0.7-0.2,0.9-0.5l6.1-11.6c7.5-2.9,12.6-10.2,12.6-18.3C44.4,8.8,35.6,0,24.8,0z M24.8,49.6
		L24.8,49.6L24.8,49.6L24.8,49.6z"/>
	<path class="st1" d="M24.8,0.8C14.5,0.8,6.1,9.3,6.1,19.6c0,7.8,4.9,14.9,12.3,17.6l5.5,10.3h0l0.8,1.6c0.1,0.1,0.2,0.1,0.3,0
		l0.5-0.9c0,0,0,0,0,0l5.8-11c7.4-2.7,12.3-9.7,12.3-17.6C43.6,9.3,35.2,0.8,24.8,0.8z"/>
	<ellipse class="st0" cx="24.8" cy="19.6" rx="12.9" ry="12.9"/>
	<g>
		<g id="directions-bus_4_">
			<path class="st1" d="M19.3,22.7c0,0.6,0.3,1.2,0.7,1.5v1.2c0,0.4,0.3,0.7,0.7,0.7h0.7c0.4,0,0.7-0.3,0.7-0.7v-0.7h5.5v0.7
				c0,0.4,0.3,0.7,0.7,0.7H29c0.4,0,0.7-0.3,0.7-0.7v-1.2c0.4-0.3,0.7-0.9,0.7-1.5v-6.9c0-2.4-2.5-2.7-5.5-2.7c-3,0-5.5,0.3-5.5,2.7
				L19.3,22.7L19.3,22.7z M21.7,23.4c-0.6,0-1-0.5-1-1c0-0.6,0.5-1,1-1s1,0.5,1,1C22.8,22.9,22.3,23.4,21.7,23.4z M27.9,23.4
				c-0.6,0-1-0.5-1-1c0-0.6,0.5-1,1-1c0.6,0,1,0.5,1,1S28.5,23.4,27.9,23.4z M29,19.2h-8.2v-3.4H29V19.2z"/>
		</g>
	</g>
	<path class="st2" d="M14.8,19.6c0-7.3,6.2-13.3,13.3-14.2c-0.6-0.1-1.2-0.1-1.9-0.1c-7.9,0-14.4,6.4-14.4,14.4s6.4,14.4,14.4,14.4
		c0.6,0,1.2,0,1.9-0.1C21,32.9,14.8,26.9,14.8,19.6z"/>
</g>
</svg>
